<!DOCTYPE svg PUBLIC "-//W3C//DTD SVG 1.1//EN" "http://www.w3.org/Graphics/SVG/1.1/DTD/svg11.dtd">
<!-- Uploaded to: SVG Repo, www.svgrepo.com, Transformed by: SVG Repo Mixer Tools -->
<svg width="128px" height="128px" viewBox="-2.72 -2.72 21.44 21.44" fill="none" xmlns="http://www.w3.org/2000/svg" stroke="#4c4848" stroke-width="0.4">
<g id="SVGRepo_bgCarrier" stroke-width="0">
<path transform="translate(-2.72, -2.72), scale(1.34)" fill="#bfbfbf" d="M9.166.33a2.25 2.25 0 00-2.332 0l-5.25 3.182A2.25 2.25 0 00.5 5.436v5.128a2.25 2.25 0 001.084 1.924l5.25 3.182a2.25 2.25 0 002.332 0l5.25-3.182a2.25 2.25 0 001.084-1.924V5.436a2.25 2.25 0 00-1.084-1.924L9.166.33z" strokewidth="0"/>
</g>
<g id="SVGRepo_tracerCarrier" stroke-linecap="round" stroke-linejoin="round"/>
<g id="SVGRepo_iconCarrier"> <path d="M4 0H2V3H4V0Z" fill="#ffffff"/> <path fill-rule="evenodd" clip-rule="evenodd" d="M2 5H13C14.6569 5 16 6.34315 16 8V10C16 11.6569 14.6569 13 13 13H11.8293C11.4175 14.1652 10.3062 15 9 15H5C3.34315 15 2 13.6569 2 12V5ZM12 11V7H13C13.5523 7 14 7.44772 14 8V10C14 10.5523 13.5523 11 13 11H12Z" fill="#ffffff"/> <path d="M10 0H12V3H10V0Z" fill="#ffffff"/> <path d="M8 0H6V3H8V0Z" fill="#ffffff"/> </g>
</svg>